<?xml version="1.0" encoding="UTF-8"?>
<svg width="118px" height="114px" viewBox="0 0 118 114" version="1.1" xmlns="http://www.w3.org/2000/svg" xmlns:xlink="http://www.w3.org/1999/xlink">
    <!-- Generator: Sketch 49 (51002) - http://www.bohemiancoding.com/sketch -->
    <title>Group</title>
    <desc>Created with Sketch.</desc>
    <defs></defs>
    <g id="Page-1" stroke="none" stroke-width="1" fill="none" fill-rule="evenodd">
        <g id="Group" fill="#3490B3" fill-rule="nonzero">
            <path d="M25.2,88 C11.3,88 0,99.3 0,113.2 L5.5,113.2 C5.5,102.4 14.3,93.5 25.2,93.5 C36,93.5 44.9,102.3 44.9,113.2 L50.4,113.2 C50.4,99.3 39.1,88 25.2,88 Z" id="Shape"></path>
            <path d="M25.7,83.4 C34.9,83.4 42.4,75.9 42.4,66.7 C42.4,57.5 34.9,50 25.7,50 C16.5,50 9,57.5 9,66.7 C9,75.9 16.5,83.4 25.7,83.4 Z M25.7,55.5 C31.8,55.5 36.8,60.5 36.8,66.6 C36.8,72.7 31.8,77.7 25.7,77.7 C19.6,77.7 14.6,72.7 14.6,66.6 C14.6,60.5 19.6,55.5 25.7,55.5 Z" id="Shape"></path>
            <path d="M99.4,88.6 L97.2,88 L91.8,98.1 L86.3,88.2 L84.1,88.9 C73.9,92.3 67,101.9 67,112.7 L72.5,112.7 C72.5,105 77,98.1 83.8,94.9 L92,109.6 L100,94.6 C107.1,97.7 111.9,104.8 111.9,112.7 L117.4,112.7 C117.4,101.7 110,91.7 99.4,88.6 Z" id="Shape"></path>
            <path d="M91.7,83.4 C100.9,83.4 108.4,75.9 108.4,66.7 C108.4,57.5 100.9,50 91.7,50 C82.5,50 75,57.5 75,66.7 C75,75.9 82.5,83.4 91.7,83.4 Z M91.7,55.5 C97.8,55.5 102.8,60.5 102.8,66.6 C102.8,72.7 97.8,77.7 91.7,77.7 C85.6,77.7 80.5,72.7 80.5,66.6 C80.6,60.5 85.6,55.5 91.7,55.5 Z" id="Shape"></path>
            <path d="M73.5,33.4 C75.2,30.1 76,26.4 76,22.8 C75.9,10.2 65.6,0 52.8,0 C46.7,0.1 40.9,2.5 36.6,6.9 C32.3,11.3 30,17.1 30,23.2 C30.1,35.8 40.4,46 53.2,46 C56.1,46 58.9,45.4 61.6,44.3 L77.4,51.6 L73.5,33.4 Z M69.7,41.9 L61.7,38.2 L60.5,38.8 C58.2,39.9 55.7,40.5 53,40.5 C43.5,40.5 35.6,32.7 35.5,23.2 C35.4,18.5 37.2,14.1 40.5,10.8 C43.8,7.5 48.1,5.6 53,5.6 C62.5,5.6 70.4,13.4 70.5,22.9 C70.5,26 69.7,29 68.2,31.7 L67.7,32.5 L69.7,41.9 Z" id="Shape"></path>
        </g>
    </g>
</svg>