<svg id="Capa_1" data-name="Capa 1" xmlns="http://www.w3.org/2000/svg" viewBox="0 0 219.2 60.59"><defs><style>.cls-1{fill:#3490b3;}</style></defs><title>logo</title><path class="cls-1" d="M456.8,163.19h19l11.76,36.24h.24l9.86-36.24h19.48l10.69,36.24h.24l10.81-36.24H557L536.4,220.93H518.82l-12-38.37h-.24l-10.69,38.37H477.95Z" transform="translate(-456.8 -161.76)"/><path class="cls-1" d="M617.31,210.95c-5.7,7.25-15.09,11.41-24.36,11.41-17.82,0-32.08-11.88-32.08-30.29s14.26-30.3,32.08-30.3c16.63,0,27.09,11.88,27.09,30.3v5.58H578.7c1.43,6.77,6.53,11.17,13.43,11.17,5.82,0,9.74-3,12.71-7Zm-15.09-25.42a10.68,10.68,0,0,0-10.93-10.93c-7.84,0-12.12,5.35-12.59,10.93Z" transform="translate(-456.8 -161.76)"/><circle class="cls-1" cx="207.83" cy="47.04" r="11.37"/></svg>